<svg xmlns="http://www.w3.org/2000/svg" xmlns:osb="http://www.openswatchbook.org/uri/2009/osb" id="svg8" width="48" height="48" version="1.1" viewBox="0 0 12.7 12.7"><title id="title4753">UIO-icon</title><metadata id="metadata5"/><g id="layer1" fill="#333" transform="translate(0,-284.3)"><path id="rect878" fill-rule="evenodd" d="m1.0583 287.34v4.2333h7.4083v-4.2333zm3.4396 0.39688h0.79375v1.1906h1.1906v0.79375h-1.1906v1.1906h-0.79375v-1.1906h-1.1906v-0.79375h1.1906zm4.2333 0.92604v4.2333h0.56741c0.11749-0.40171 0.4858-0.67784 0.90434-0.67799 0.41854 0.0001529 0.78685 0.27628 0.90434 0.67799h0.53433v-2.1167l-1.0242-2.1167zm1.7994 0.13488 0.96118 1.9808h-2.6238v-1.9802zm-9.4723 3.0401v1.0583h0.41858c0.11749-0.40171 0.4858-0.67784 0.90434-0.67799 0.41854 0.0001529 0.78685 0.27628 0.90434 0.67799h0.56431c0.11749-0.40171 0.4858-0.67784 0.90434-0.67799 0.41854 0.0001529 0.78685 0.27628 0.90434 0.67799h2.8081v-1.0583zm1.3229 0.52917c-0.43838 0-0.79375 0.35537-0.79375 0.79375-7e-9 0.43838 0.35537 0.79375 0.79375 0.79375s0.79375-0.35537 0.79375-0.79375c5e-9 -0.43838-0.35537-0.79375-0.79375-0.79375zm2.373 0c-0.43838 0-0.79375 0.35537-0.79375 0.79375-5e-9 0.43838 0.35537 0.79375 0.79375 0.79375s0.79375-0.35537 0.79375-0.79375c5e-9 -0.43838-0.35537-0.79375-0.79375-0.79375zm5.4488 0c-0.43838 0-0.79375 0.35537-0.79375 0.79375-5e-9 0.43838 0.35537 0.79375 0.79375 0.79375s0.79375-0.35537 0.79375-0.79375c1e-8 -0.43838-0.35537-0.79375-0.79375-0.79375z"/></g></svg>